<svg xmlns="http://www.w3.org/2000/svg" viewBox="-0.03 0.05 568.03 128"><path d="M201.1 89.8h-46l-11.9 26.5h-9.8L173 29h10.5l39.6 87.3h-10.5l-11.5-26.5zm-22.9-51.7l-19.4 43.4h38.6l-19.2-43.4zM227.4 28.3h9v55.4l38.8-30.9h13.5l-31.1 24.1 33.5 39.5h-12l-28.3-33.6-14.3 10.9v22.7h-9l-.1-88.1z" fill="white" style="--darkreader-inline-fill: white;" data-darkreader-inline-fill=""/><path d="M354.8 96.1c-3.7 11.2-13.2 22.3-34.2 22.3-26 0-34.6-18.2-34.6-33.8 0-17.7 10.9-33.7 34.6-33.7 16.4 0 35.8 7.1 35.8 35.9H295c0 13.2 9.4 24 25.5 24 15.2 0 22-5 25.2-14.7h9.1zm-7.5-16.2c-2.6-15.7-14.1-21.5-26.2-21.5-11.6 0-24.1 6-26.2 21.5h52.4zM365.3 52.8h9v14.6h.2c3.3-7.6 9.3-16.5 24.3-16.5 1.8 0 3.6.1 5.4.5v9.3c-2.7-.5-5.5-.7-8.3-.7-9.8 0-21.6 6-21.6 24.1v32.4h-9V52.8zM409.5 29.1h49.6c17.1 0 24.3 9.7 24.3 22 0 8.4-4.6 16.3-15 18.7v.2c11.5 1.7 18.5 10.1 18.5 21.4 0 18.2-15.4 24.9-28.9 24.9h-48.6V29.1zm9 37.9h35.8c12.2 0 20-3.9 20-15.5 0-10.6-7.1-14.1-17-14.1h-38.8V67zm0 41h38c11.7 0 20.5-4.7 20.5-16.6 0-12.6-7.8-16.1-18.3-16.1h-40.2V108zM494.6 29.1h47.1c13.5 0 26.3 6.7 26.3 25.2 0 16.5-10.9 25.4-30.3 25.4h-34v36.7h-9l-.1-87.3zm9.1 42.3h35c15.2 0 19.6-7 19.6-17.1 0-13.1-7.3-16.9-17.7-16.9h-36.8l-.1 34z" fill="white" style="--darkreader-inline-fill: white;" data-darkreader-inline-fill=""/><linearGradient id="a" gradientUnits="userSpaceOnUse" x1="95.178" y1="74.202" x2="118.788" y2="67.432" gradientTransform="matrix(1 0 0 -1 0 130)"><stop offset="0" stop-color="white" style="--darkreader-inline-stopcolor: white;" data-darkreader-inline-stopcolor=""/><stop offset=".49" stop-color="white" style="--darkreader-inline-stopcolor: white;" data-darkreader-inline-stopcolor=""/><stop offset=".63" stop-color="white" style="--darkreader-inline-stopcolor: white;" data-darkreader-inline-stopcolor=""/><stop offset=".75" stop-color="white" style="--darkreader-inline-stopcolor: white;" data-darkreader-inline-stopcolor=""/><stop offset=".87" stop-color="white" style="--darkreader-inline-stopcolor: white;" data-darkreader-inline-stopcolor=""/><stop offset=".98" stop-color="white" style="--darkreader-inline-stopcolor: white;" data-darkreader-inline-stopcolor=""/><stop offset="1" stop-color="white" style="--darkreader-inline-stopcolor: white;" data-darkreader-inline-stopcolor=""/></linearGradient><path d="M119.8 53.5c.2-1.5.4-2.8.6-4v.1c-.7 4-4.4 1.8-5.9.8-7.7-5.1-19.5-10.1-17.1 3.5 2.2 12.7 18 18.3 17.8 21.1 2-6.8 3.5-13.8 4.5-20.8l.1-.7z" fill="url(#a)"/><path d="M27.6 6.6c-.5.8.3 1.7 1.4 2.8 3.5-2.9.1-5.2-1.3-3l-.1.2zM24.2 31.4c-1.4-2.5-2.7-5.5-2.2-8.4-1.6 1.8-3 3.8-4 6-.5 1-.5 2.1 6.2 2.4zM15.4 43.1c-.3-2.3-2.5-3.5-3.2-2-.4.8-.2 2.6 3 3.9.2-.6.3-1.2.2-1.9z" fill="white" style="--darkreader-inline-fill: white;" data-darkreader-inline-fill=""/><linearGradient id="b" gradientUnits="userSpaceOnUse" x1="-310.911" y1="-171.789" x2="-254.041" y2="-190.262" gradientTransform="scale(1 -1) rotate(-3.35 2355.292 -5724.007)"><stop offset="0" stop-color="white" style="--darkreader-inline-stopcolor: white;" data-darkreader-inline-stopcolor=""/><stop offset=".04" stop-color="white" style="--darkreader-inline-stopcolor: white;" data-darkreader-inline-stopcolor=""/><stop offset=".08" stop-color="white" style="--darkreader-inline-stopcolor: white;" data-darkreader-inline-stopcolor=""/><stop offset=".11" stop-color="white" style="--darkreader-inline-stopcolor: white;" data-darkreader-inline-stopcolor=""/><stop offset=".14" stop-color="white" style="--darkreader-inline-stopcolor: white;" data-darkreader-inline-stopcolor=""/><stop offset=".17" stop-color="white" style="--darkreader-inline-stopcolor: white;" data-darkreader-inline-stopcolor=""/><stop offset=".2" stop-color="white" style="--darkreader-inline-stopcolor: white;" data-darkreader-inline-stopcolor=""/><stop offset=".24" stop-color="white" style="--darkreader-inline-stopcolor: white;" data-darkreader-inline-stopcolor=""/><stop offset=".28" stop-color="white" style="--darkreader-inline-stopcolor: white;" data-darkreader-inline-stopcolor=""/><stop offset=".32" stop-color="white" style="--darkreader-inline-stopcolor: white;" data-darkreader-inline-stopcolor=""/><stop offset=".33" stop-color="white" style="--darkreader-inline-stopcolor: white;" data-darkreader-inline-stopcolor=""/><stop offset=".34" stop-color="white" style="--darkreader-inline-stopcolor: white;" data-darkreader-inline-stopcolor=""/><stop offset=".37" stop-color="white" style="--darkreader-inline-stopcolor: white;" data-darkreader-inline-stopcolor=""/><stop offset=".41" stop-color="white" style="--darkreader-inline-stopcolor: white;" data-darkreader-inline-stopcolor=""/><stop offset=".48" stop-color="white" style="--darkreader-inline-stopcolor: white;" data-darkreader-inline-stopcolor=""/><stop offset=".54" stop-color="white" style="--darkreader-inline-stopcolor: white;" data-darkreader-inline-stopcolor=""/><stop offset=".59" stop-color="white" style="--darkreader-inline-stopcolor: white;" data-darkreader-inline-stopcolor=""/><stop offset=".62" stop-color="white" style="--darkreader-inline-stopcolor: white;" data-darkreader-inline-stopcolor=""/><stop offset=".69" stop-color="white" style="--darkreader-inline-stopcolor: white;" data-darkreader-inline-stopcolor=""/><stop offset=".81" stop-color="white" style="--darkreader-inline-stopcolor: white;" data-darkreader-inline-stopcolor=""/><stop offset=".96" stop-color="white" style="--darkreader-inline-stopcolor: white;" data-darkreader-inline-stopcolor=""/><stop offset="1" stop-color="white" style="--darkreader-inline-stopcolor: white;" data-darkreader-inline-stopcolor=""/></linearGradient><path d="M71.4 48c-1.8-2.2-3.9-4.1-6.4-5.5-11-6.8-29.8-10.9-37.7-11-1.2 0-2.2 0-3.1-.1-6.7-.3-6.7-1.4-6.2-2.4 1-2.2 2.4-4.3 4.1-6 4.8-5.1 10.9-6.9 15.7-8.2C44 13 54.5 7.1 45.3 2.3s-14.7-.6-15.7.8c-.8 1.1-1.4 2.3-2 3.5l.1-.2c1.5-2.2 4.8.1 1.3 3l-.2.1c-3.9 3.1-8.1 10.2-10.4 15.4-3.2 7.1-6.3 16.2-6.3 16.2.8-1.5 2.9-.3 3.2 2 .1.6 0 1.3-.2 1.9-.5 1.4-1.1 2.7-1.9 3.9-3.2 5.5 1.9 10.2 6.6 11.1 4.1.8 27.2-1.2 35.5-2.2 1.3-.2 2.2-.3 2.7-.4 3.4-.6 18.2-3 13.4-9.4z" fill="url(#b)"/><path d="M1.8 79.8v-.2.2z" fill="white" style="--darkreader-inline-fill: white;" data-darkreader-inline-fill=""/><linearGradient id="c" gradientUnits="userSpaceOnUse" x1="1.764" y1="49.34" x2="17.5" y2="49.34" gradientTransform="matrix(1 0 0 -1 0 130)"><stop offset="0" stop-color="white" style="--darkreader-inline-stopcolor: white;" data-darkreader-inline-stopcolor=""/><stop offset="1" stop-color="white" style="--darkreader-inline-stopcolor: white;" data-darkreader-inline-stopcolor=""/></linearGradient><path d="M3.2 87c2.9 2.2 7.8 1.4 14.3-.1C9.8 78.8 7.2 72.6 4.4 73c-1.5.2-2.2 4.2-2.6 6.7-.2 4.4.4 6.6 1.4 7.3z" fill="url(#c)"/><linearGradient id="d" gradientUnits="userSpaceOnUse" x1="-316.529" y1="-243.401" x2="-260.452" y2="-275.779" gradientTransform="scale(1 -1) rotate(-3.35 2355.292 -5724.007)"><stop offset="0" stop-color="white" style="--darkreader-inline-stopcolor: white;" data-darkreader-inline-stopcolor=""/><stop offset=".51" stop-color="white" style="--darkreader-inline-stopcolor: white;" data-darkreader-inline-stopcolor=""/><stop offset=".72" stop-color="white" style="--darkreader-inline-stopcolor: white;" data-darkreader-inline-stopcolor=""/><stop offset=".93" stop-color="white" style="--darkreader-inline-stopcolor: white;" data-darkreader-inline-stopcolor=""/><stop offset="1" stop-color="white" style="--darkreader-inline-stopcolor: white;" data-darkreader-inline-stopcolor=""/></linearGradient><path d="M5.3 102.5l-.7-.2c1.9 3.8 4.2 7.4 6.9 10.7 15.4 18.9 46.1 15.6 53.2 13.1s1.6-7.6-2.7-10.1c-2.5-1.5-9.4-4.1-18.3-9.2-12.6-.3-27.8-1.4-38.4-4.3z" fill="url(#d)"/><linearGradient id="e" gradientUnits="userSpaceOnUse" x1="-289.899" y1="-194.116" x2="-210.154" y2="-210.997" gradientTransform="scale(1 -1) rotate(-3.35 2355.292 -5724.007)"><stop offset=".16" stop-color="white" style="--darkreader-inline-stopcolor: white;" data-darkreader-inline-stopcolor=""/><stop offset=".22" stop-color="white" style="--darkreader-inline-stopcolor: white;" data-darkreader-inline-stopcolor=""/><stop offset=".34" stop-color="white" style="--darkreader-inline-stopcolor: white;" data-darkreader-inline-stopcolor=""/><stop offset=".51" stop-color="white" style="--darkreader-inline-stopcolor: white;" data-darkreader-inline-stopcolor=""/><stop offset=".65" stop-color="white" style="--darkreader-inline-stopcolor: white;" data-darkreader-inline-stopcolor=""/><stop offset=".69" stop-color="white" style="--darkreader-inline-stopcolor: white;" data-darkreader-inline-stopcolor=""/><stop offset=".77" stop-color="white" style="--darkreader-inline-stopcolor: white;" data-darkreader-inline-stopcolor=""/><stop offset=".86" stop-color="white" style="--darkreader-inline-stopcolor: white;" data-darkreader-inline-stopcolor=""/><stop offset=".93" stop-color="white" style="--darkreader-inline-stopcolor: white;" data-darkreader-inline-stopcolor=""/></linearGradient><path d="M108.8 33.1c-11 .1-22 1.7-32.7 4.6-3.9 1-7.6 2.6-11 4.8v.1c2.4 1.4 4.6 3.3 6.3 5.5 4.8 6.4-10 8.8-13.5 9.5-.5.1-1.4.2-2.7.4-.2 1.5-.2 3 0 4.5.4 3.3-1.1 6.7-4.8 7.5s-20.7 5.3-20.8 9c.1 1.8.6 3.5 1.5 5 2.1-.4 4.4-.8 6.7-1.1 16.4-2.1 47.3-6.3 49.2.8 8.6-4 13.9-8.7 17.3-10.3 4-1.9 10 3.8 10.8 1.7.2-2.8-15.7-8.4-17.8-21.1-2.3-13.6 9.5-8.6 17.1-3.5 1.5 1 5.2 3.2 5.9-.8v-.1c.9-6.3.7-6.7 1.1-10.8.5-5-7.9-5.9-12.6-5.7z" fill="url(#e)"/><linearGradient id="f" gradientUnits="userSpaceOnUse" x1="1.482" y1="49.064" x2="83.137" y2="28.71" gradientTransform="matrix(1 0 0 -1 0 130)"><stop offset="0" stop-color="white" style="--darkreader-inline-stopcolor: white;" data-darkreader-inline-stopcolor=""/><stop offset=".02" stop-color="white" style="--darkreader-inline-stopcolor: white;" data-darkreader-inline-stopcolor=""/><stop offset=".06" stop-color="white" style="--darkreader-inline-stopcolor: white;" data-darkreader-inline-stopcolor=""/><stop offset=".11" stop-color="white" style="--darkreader-inline-stopcolor: white;" data-darkreader-inline-stopcolor=""/><stop offset=".17" stop-color="white" style="--darkreader-inline-stopcolor: white;" data-darkreader-inline-stopcolor=""/><stop offset=".21" stop-color="white" style="--darkreader-inline-stopcolor: white;" data-darkreader-inline-stopcolor=""/><stop offset=".25" stop-color="white" style="--darkreader-inline-stopcolor: white;" data-darkreader-inline-stopcolor=""/><stop offset=".3" stop-color="white" style="--darkreader-inline-stopcolor: white;" data-darkreader-inline-stopcolor=""/><stop offset=".35" stop-color="white" style="--darkreader-inline-stopcolor: white;" data-darkreader-inline-stopcolor=""/><stop offset=".4" stop-color="white" style="--darkreader-inline-stopcolor: white;" data-darkreader-inline-stopcolor=""/><stop offset=".43" stop-color="white" style="--darkreader-inline-stopcolor: white;" data-darkreader-inline-stopcolor=""/><stop offset=".46" stop-color="white" style="--darkreader-inline-stopcolor: white;" data-darkreader-inline-stopcolor=""/><stop offset=".87" stop-color="white" style="--darkreader-inline-stopcolor: white;" data-darkreader-inline-stopcolor=""/></linearGradient><path d="M37.9 82.8c-2.3.3-4.6.7-6.7 1.1-5.1 1-9.8 2.2-13.7 3-6.5 1.5-11.4 2.3-14.3.1-1-.8-1.6-3-1.4-7.3v.2C1.2 84-.1 92.6 0 96.3c.1 3.5.8 4.8 4.6 6l.7.2c10.6 2.9 25.8 4 38.5 4.3 10.9.2 19.9-.2 22.3-.6 5.1-.8 4.5-4.4 3.8-6.9-.8-2.7-1.4-4.8 2.6-5.8 5.1-1.3 14.3-5 14.8-8.7.1-.4 0-.8-.1-1.2-2-7.1-32.9-2.9-49.3-.8z" fill="url(#f)"/></svg>
