<svg xmlns="http://www.w3.org/2000/svg" xmlns:xlink="http://www.w3.org/1999/xlink" width="164" height="46" fill="none" xmlns:v="https://vecta.io/nano"><g fill="#fff"><path d="M85.085 27.496h5.77l3.516 7.063h5.333l-4.48-8.76c.965-.806 1.737-1.807 2.262-2.934a8.29 8.29 0 0 0 .777-3.59c0-4.542-3.483-8.231-7.78-8.231H80.306v23.522h4.78v-7.07zm0-12.274h4.46c2.25 0 3.823 1.81 3.823 4.046s-1.557 4.046-3.823 4.046h-4.46v-8.091zm65.643.253v5.191h6.413v4.253h-6.413v5.191h11.403v4.438h-16.182V11.031h15.955v4.442l-11.176.003zm-17.902 16.267a12.65 12.65 0 0 1-6.271 3.042 12.83 12.83 0 0 1-6.967-.715c-2.206-.879-4.107-2.353-5.481-4.248a11.96 11.96 0 0 1-2.277-6.449c-.113-2.317.456-4.617 1.64-6.63a12.37 12.37 0 0 1 5.044-4.733c2.11-1.078 4.493-1.547 6.867-1.353s4.643 1.045 6.538 2.451l-2.836 3.744c-.972-.735-2.11-1.234-3.32-1.454a7.94 7.94 0 0 0-3.636.185 7.78 7.78 0 0 0-3.146 1.783 7.5 7.5 0 0 0-1.96 2.987c-.4 1.133-.517 2.343-.34 3.528s.642 2.313 1.357 3.289a7.67 7.67 0 0 0 2.751 2.321 7.91 7.91 0 0 0 3.537.839c2.097 0 4-.938 5.35-2.034l3.15 3.449zM20.922 11.031v23.522h-4.883L5.973 19.551v15.005h-4.78V11.031h4.773l10.176 15.168V11.031h4.78z"/><use xlink:href="#B"/><use xlink:href="#C"/><use xlink:href="#C" x="-1.92" y="5.739"/><path d="M36.482 8.293a1.13 1.13 0 0 1-.203.634 1.17 1.17 0 0 1-.53.418 1.21 1.21 0 0 1-.679.061 1.18 1.18 0 0 1-.6-.316 1.13 1.13 0 0 1-.319-.587c-.044-.222-.021-.452.069-.66a1.16 1.16 0 0 1 .433-.512 1.2 1.2 0 0 1 .653-.192c.312 0 .611.121.832.335a1.13 1.13 0 0 1 .345.81m2.792 3.224c0 .226-.069.448-.198.636a1.17 1.17 0 0 1-.528.422c-.215.087-.451.109-.68.065a1.18 1.18 0 0 1-.602-.313c-.164-.16-.277-.364-.322-.586a1.12 1.12 0 0 1 .067-.662c.089-.209.24-.388.433-.514a1.2 1.2 0 0 1 .654-.193c.312 0 .611.121.832.335a1.13 1.13 0 0 1 .345.81z"/><use xlink:href="#D"/><use xlink:href="#C" x="4.109" y="3.108"/><use xlink:href="#B" x="-1.349" y="4.075"/><path d="M56.541 6.813c0 .227-.069.448-.198.636a1.17 1.17 0 0 1-.528.422c-.215.087-.452.109-.68.065s-.438-.153-.602-.313-.277-.364-.322-.586-.022-.452.067-.662a1.15 1.15 0 0 1 .433-.514 1.2 1.2 0 0 1 .654-.193c.154 0 .307.03.45.087a1.18 1.18 0 0 1 .382.248c.109.106.196.233.255.372a1.12 1.12 0 0 1 .09.438z"/><use xlink:href="#E"/><use xlink:href="#F"/><use xlink:href="#C" x="8.775" y="5.95"/><path d="M59.136 11.489c0 .226-.069.448-.198.636a1.17 1.17 0 0 1-.528.422c-.215.087-.452.109-.68.065s-.438-.153-.602-.313-.277-.364-.322-.586-.022-.453.067-.662a1.15 1.15 0 0 1 .433-.514 1.2 1.2 0 0 1 .654-.193c.154 0 .307.03.45.087a1.18 1.18 0 0 1 .382.248c.109.106.196.233.255.372s.09.288.09.438z"/><use xlink:href="#G"/><use xlink:href="#H"/><use xlink:href="#D" x="27.412" y="0.727"/><path d="M67.574 16.443c0 .226-.069.448-.198.636a1.17 1.17 0 0 1-.528.422c-.215.087-.452.109-.68.065s-.438-.153-.603-.313-.277-.364-.322-.586-.022-.452.067-.662a1.15 1.15 0 0 1 .433-.514 1.2 1.2 0 0 1 .654-.193c.154 0 .308.03.45.087a1.18 1.18 0 0 1 .382.248c.109.106.196.233.255.372a1.12 1.12 0 0 1 .09.438z"/><use xlink:href="#H" x="6.882" y="5.415"/><use xlink:href="#C" x="29.08" y="22.256"/><path d="M68.109 27.685c0 .227-.069.448-.198.636a1.17 1.17 0 0 1-.528.422c-.215.087-.451.109-.68.065a1.18 1.18 0 0 1-.602-.313c-.164-.16-.277-.364-.322-.586a1.12 1.12 0 0 1 .067-.662 1.15 1.15 0 0 1 .433-.514 1.2 1.2 0 0 1 .654-.193c.312 0 .611.121.832.335a1.13 1.13 0 0 1 .345.81zm-3.006-1.574a1.13 1.13 0 0 1-.19.641 1.17 1.17 0 0 1-.524.429 1.21 1.21 0 0 1-.681.072c-.229-.042-.44-.15-.607-.31s-.28-.363-.327-.586a1.12 1.12 0 0 1 .064-.664 1.15 1.15 0 0 1 .433-.517 1.2 1.2 0 0 1 .655-.194c.312 0 .611.121.832.335a1.13 1.13 0 0 1 .345.81"/><path d="M63.836 29.229a1.12 1.12 0 0 1-.199.637 1.17 1.17 0 0 1-.529.422c-.215.087-.452.109-.68.065s-.438-.154-.602-.314-.276-.365-.321-.587a1.12 1.12 0 0 1 .068-.662c.09-.209.241-.388.435-.513a1.2 1.2 0 0 1 .655-.192c.312 0 .611.121.832.335a1.13 1.13 0 0 1 .345.81m2.877 1.634c0 .226-.069.448-.198.636a1.17 1.17 0 0 1-.528.422c-.215.087-.451.109-.68.065s-.438-.153-.602-.314a1.14 1.14 0 0 1-.322-.586 1.12 1.12 0 0 1 .067-.662c.089-.209.24-.388.433-.514a1.2 1.2 0 0 1 .654-.193c.154 0 .307.03.45.087a1.18 1.18 0 0 1 .382.248 1.15 1.15 0 0 1 .255.371 1.12 1.12 0 0 1 .09.438z"/><use xlink:href="#B" x="15.485" y="31.711"/><use xlink:href="#I"/><use xlink:href="#B" x="8.047" y="33.625"/><use xlink:href="#B" x="4.768" y="31.918"/><use xlink:href="#B" x="1.655" y="33.356"/><use xlink:href="#C" x="14.176" y="34.764"/><use xlink:href="#B" x="0.221" y="37.025"/><use xlink:href="#H" x="-17.883" y="25.585"/><use xlink:href="#C" x="2.713" y="39.462"/><use xlink:href="#J"/><use xlink:href="#B" x="-1.732" y="33.982"/><use xlink:href="#B" x="1.055" y="41.126"/><use xlink:href="#D" x="25.754" y="25.365"/><use xlink:href="#E" x="2.681" y="9.656"/><path d="M65.533 22.789c0 .227-.069.448-.198.636a1.17 1.17 0 0 1-.528.422c-.215.087-.452.109-.68.065a1.19 1.19 0 0 1-.602-.313c-.164-.16-.277-.364-.322-.586s-.022-.453.067-.662a1.15 1.15 0 0 1 .433-.514 1.2 1.2 0 0 1 .654-.193c.312 0 .611.121.832.335a1.13 1.13 0 0 1 .345.81z"/><use xlink:href="#B" x="-5.191" y="7.511"/><use xlink:href="#G" x="-5.772" y="-3.569"/><path d="M45.933 10.707c0 .226-.069.448-.198.636a1.17 1.17 0 0 1-.528.422c-.215.087-.451.109-.68.065a1.18 1.18 0 0 1-.602-.313c-.164-.16-.277-.364-.322-.586a1.12 1.12 0 0 1 .067-.662c.089-.209.24-.388.433-.514a1.2 1.2 0 0 1 .654-.193c.312 0 .611.121.832.335a1.13 1.13 0 0 1 .345.81zm-2.902 1.791a1.12 1.12 0 0 1-.197.637 1.17 1.17 0 0 1-.527.423c-.215.087-.452.11-.68.066a1.19 1.19 0 0 1-.603-.313 1.14 1.14 0 0 1-.323-.586c-.046-.222-.023-.453.066-.662a1.15 1.15 0 0 1 .433-.514 1.2 1.2 0 0 1 .654-.193c.312 0 .611.121.832.335a1.13 1.13 0 0 1 .345.81m-2.367 2.443c0 .226-.069.448-.198.636a1.17 1.17 0 0 1-.528.422c-.215.087-.452.109-.68.065s-.438-.153-.602-.314a1.14 1.14 0 0 1-.322-.586 1.12 1.12 0 0 1 .067-.662 1.15 1.15 0 0 1 .433-.514 1.2 1.2 0 0 1 .654-.193c.312 0 .611.121.832.336a1.13 1.13 0 0 1 .345.81z"/><use xlink:href="#H" x="-26.86" y="4.477"/><path d="M38.172 21.128c0 .227-.069.448-.199.637a1.17 1.17 0 0 1-.529.422c-.215.087-.452.109-.68.065s-.438-.154-.602-.314-.276-.365-.321-.587-.021-.453.068-.662a1.15 1.15 0 0 1 .435-.513 1.2 1.2 0 0 1 .655-.192c.154 0 .307.03.45.087a1.18 1.18 0 0 1 .382.248c.109.106.196.233.255.371a1.12 1.12 0 0 1 .09.438"/><use xlink:href="#C" x="-9.104" y="18.34"/><path d="M30.484 24.187c-.001.226-.071.447-.202.634a1.17 1.17 0 0 1-.529.419 1.21 1.21 0 0 1-.679.063c-.228-.045-.437-.154-.601-.315s-.275-.364-.32-.586-.021-.452.068-.661a1.15 1.15 0 0 1 .433-.513 1.2 1.2 0 0 1 .653-.193c.312 0 .611.121.832.335a1.13 1.13 0 0 1 .345.81"/><use xlink:href="#J" x="-14.308" y="-10.641"/><path d="M38.176 24.479c0 .227-.069.448-.198.636a1.17 1.17 0 0 1-.528.422c-.215.087-.452.109-.68.065s-.438-.153-.602-.314-.277-.364-.322-.586-.022-.452.067-.662.24-.388.433-.514a1.2 1.2 0 0 1 .654-.193c.154 0 .307.03.45.087a1.18 1.18 0 0 1 .382.248c.109.106.196.233.255.372a1.12 1.12 0 0 1 .09.438z"/><use xlink:href="#G" x="-22.762" y="14.096"/><path d="M36.427 30.011c.002.227-.065.449-.193.639a1.17 1.17 0 0 1-.526.426 1.21 1.21 0 0 1-.681.069 1.18 1.18 0 0 1-.605-.311 1.14 1.14 0 0 1-.325-.586c-.046-.222-.023-.453.065-.663s.24-.389.433-.515a1.2 1.2 0 0 1 .655-.194c.312 0 .611.121.832.335a1.13 1.13 0 0 1 .345.81m-3.511 2.481c0 .227-.069.448-.198.636a1.17 1.17 0 0 1-.528.422c-.215.087-.452.109-.68.065s-.438-.153-.602-.313-.277-.364-.322-.586a1.12 1.12 0 0 1 .067-.662 1.15 1.15 0 0 1 .433-.514 1.2 1.2 0 0 1 .654-.193c.312 0 .611.121.832.335a1.13 1.13 0 0 1 .345.81zm7.779-1.849a1.13 1.13 0 0 1-.19.641 1.17 1.17 0 0 1-.524.429 1.21 1.21 0 0 1-.681.072c-.229-.042-.441-.15-.607-.31a1.14 1.14 0 0 1-.327-.586 1.12 1.12 0 0 1 .064-.664 1.15 1.15 0 0 1 .433-.517 1.2 1.2 0 0 1 .655-.194c.154 0 .307.03.45.087a1.18 1.18 0 0 1 .382.248c.109.106.196.233.255.372a1.12 1.12 0 0 1 .09.438m2.356 2.424c0 .226-.069.448-.198.636a1.17 1.17 0 0 1-.528.422c-.215.087-.452.109-.68.065s-.438-.153-.602-.313-.277-.364-.322-.586a1.12 1.12 0 0 1 .067-.662c.089-.209.24-.388.433-.514a1.2 1.2 0 0 1 .654-.193c.312 0 .611.121.832.335a1.13 1.13 0 0 1 .345.81z"/><use xlink:href="#F" x="-22.25" y="25.416"/><use xlink:href="#B" x="-11.119" y="35.027"/><use xlink:href="#I" x="-21.412" y="3.212"/><path d="M37.244 38.008c0 .227-.069.448-.198.636a1.17 1.17 0 0 1-.528.422c-.215.087-.452.109-.68.065s-.438-.153-.602-.313-.277-.364-.322-.586-.022-.452.067-.662.24-.388.433-.514a1.2 1.2 0 0 1 .654-.193c.312 0 .611.121.832.336a1.13 1.13 0 0 1 .345.81z"/><use xlink:href="#C" x="17.371" y="0.646"/><path d="M68.863 22.789c0 .227-.069.448-.198.636a1.17 1.17 0 0 1-.528.422c-.215.087-.451.109-.68.065a1.18 1.18 0 0 1-.602-.313c-.164-.16-.277-.364-.322-.586a1.12 1.12 0 0 1 .067-.662c.089-.209.24-.388.433-.514a1.2 1.2 0 0 1 .654-.193c.312 0 .611.121.832.335a1.13 1.13 0 0 1 .345.81zm-36.422-8.786c0 .226-.069.448-.198.636a1.17 1.17 0 0 1-.528.422c-.215.087-.452.109-.68.065a1.19 1.19 0 0 1-.602-.313 1.13 1.13 0 0 1-.322-.586 1.12 1.12 0 0 1 .067-.662 1.15 1.15 0 0 1 .433-.514 1.2 1.2 0 0 1 .654-.193c.312 0 .611.121.832.335a1.13 1.13 0 0 1 .345.81z"/></g><defs ><path id="B" d="M54.396 2.148c0 .227-.069.448-.198.636a1.17 1.17 0 0 1-.528.422c-.215.087-.452.109-.68.065s-.438-.153-.602-.313-.277-.364-.322-.586-.022-.452.067-.662.24-.388.433-.514a1.2 1.2 0 0 1 .654-.193c.312 0 .611.121.832.335a1.13 1.13 0 0 1 .345.81z"/><path id="C" d="M43.865 3.488c0 .227-.069.448-.198.636a1.17 1.17 0 0 1-.528.422c-.215.087-.452.109-.68.065s-.438-.153-.602-.313-.277-.364-.322-.586-.022-.452.067-.662a1.15 1.15 0 0 1 .433-.514 1.2 1.2 0 0 1 .654-.193c.312 0 .611.121.832.335a1.13 1.13 0 0 1 .345.81z"/><path id="D" d="M36.412 15.599c0 .226-.069.448-.198.636a1.17 1.17 0 0 1-.528.422c-.215.087-.452.109-.68.065s-.438-.153-.602-.313-.277-.364-.322-.586-.022-.452.067-.662a1.15 1.15 0 0 1 .433-.514 1.2 1.2 0 0 1 .654-.193c.312 0 .611.121.832.335a1.13 1.13 0 0 1 .345.81z"/><path id="E" d="M62.414 9.782c0 .227-.069.448-.198.636a1.17 1.17 0 0 1-.528.422c-.215.087-.452.109-.68.065s-.438-.153-.602-.314-.277-.364-.322-.586-.022-.452.067-.662.24-.388.433-.514a1.2 1.2 0 0 1 .654-.193c.312 0 .611.121.832.335a1.13 1.13 0 0 1 .345.81z"/><path id="F" d="M68.207 9.474c0 .227-.069.448-.198.636a1.17 1.17 0 0 1-.528.422c-.215.087-.452.109-.68.065s-.438-.153-.603-.313-.277-.364-.322-.586-.022-.452.067-.662a1.15 1.15 0 0 1 .433-.514 1.2 1.2 0 0 1 .654-.193c.312 0 .611.121.832.335a1.13 1.13 0 0 1 .345.81z"/><path id="G" d="M61.793 13.627c0 .226-.069.448-.198.636a1.17 1.17 0 0 1-.528.422c-.215.087-.452.109-.68.065s-.438-.153-.602-.313-.277-.364-.322-.586-.022-.452.067-.662.24-.388.433-.514a1.2 1.2 0 0 1 .654-.193c.312 0 .611.121.832.335a1.13 1.13 0 0 1 .345.81z"/><path id="H" d="M65.881 13.403c0 .227-.069.448-.198.636a1.17 1.17 0 0 1-.528.422c-.215.087-.452.109-.68.065s-.438-.153-.602-.313-.277-.364-.322-.586-.022-.453.067-.662.24-.388.433-.514a1.2 1.2 0 0 1 .654-.193c.312 0 .611.121.832.335a1.13 1.13 0 0 1 .345.81z"/><path id="I" d="M61.814 31.938c0 .226-.069.448-.198.636a1.17 1.17 0 0 1-.528.422c-.215.087-.452.109-.68.065s-.438-.153-.602-.314-.277-.364-.322-.586-.022-.452.067-.662.24-.388.433-.514a1.2 1.2 0 0 1 .654-.193c.312 0 .611.121.832.335a1.13 1.13 0 0 1 .345.81z"/><path id="J" d="M49.234 35.922c0 .227-.069.448-.198.636a1.17 1.17 0 0 1-.528.422c-.215.087-.452.109-.68.065s-.438-.153-.602-.313-.277-.364-.322-.586a1.12 1.12 0 0 1 .067-.662c.089-.209.24-.388.433-.514a1.2 1.2 0 0 1 .654-.193c.312 0 .611.121.832.335a1.13 1.13 0 0 1 .345.81z"/></defs></svg>