<?xml version="1.0" encoding="utf-8"?>
<!-- Generator: Adobe Illustrator 19.2.1, SVG Export Plug-In . SVG Version: 6.00 Build 0)  -->
<svg version="1.1" id="layer" xmlns="http://www.w3.org/2000/svg" xmlns:xlink="http://www.w3.org/1999/xlink" x="0px" y="0px"
	 viewBox="0 0 652 652" style="enable-background:new 0 0 652 652;" xml:space="preserve">
<style type="text/css">
	.st0{fill:none;stroke:white;stroke-width:6.5865;stroke-linecap:round;stroke-linejoin:round;}
	.st1{fill:white;}
</style>
<path id="wide-logo-image" class="st0" d="M594.7,186.7c-44.8,27.9-105.7,34-105.7,34c-43.9,3.6-69.3,3.3-112.8-6.3
	c-52.4-11.6-98.5-54.5-98.5-54.5c-12.7-12.1-26.3-26.3-38.2-40c-29.1-33.5-58.2-49.1-91.3-49.1h-1.4c-25.7,0-50.3,11.2-67.4,30.6
	c-17.1,19.6-26.5,47.2-26.5,77.5c0,17.8,2.5,36.9,7.2,56.1c6,24.6,15.7,49.3,28.8,73.3c21.2,39.1,49.1,70.7,74.6,84.8
	c5.5,3,25,13,45.2,13c24.4,0,43.1-13.4,66.9-32.4c27.3-21.7,49-34.8,73.6-34.8c26,0,42,8.9,55.9,17.1l0.3,0.2l4.9,2.9
	c15.5,8.9,37.3,19.2,46.8,21.1c4,0.8,8,1.2,12,1.2c14.2,0,28.3-5,42-14.8c14.2-10.1,27.8-25.4,40.6-45.4
	c30.8-48.1,43.3-90.2,43.3-145.4c0-36.5-27.5-65.1-62.6-65.1c-31.9,0-62,15.9-91.9,48.7l-2.5,2.7l-4.6,5.1c0,0-37.1,38.6-49.5,48.8
	c-12.3,10.3-75.5,64.5-173.6,65.9C114.5,283.2,60,235,60,235s35.4,10.1,85.5-2.4c52.7-13.3,84.8-35.7,99.1-44.5
	c14.4-8.8,40.5-27.5,40.5-27.5c19.6-14.7,43.7-22.2,68.2-20.9c13.6,0.5,27.1,3.8,40.2,9.6c10.5,4.7,20.8,11.1,30.6,19
	c0,0,14,11,24.8,21.3c10.8,10.2,33.8,33.7,71.9,43.7c38.2,9.9,67.6,4,67.6,4"/>
<path id="wide-logo-name" class="st1" d="M646,561.8c8.2,0,14.2-6.5,14.2-15.4c0-9-5.9-15.5-14.2-15.5c-8.2,0-13.9,6.4-13.9,15.5
	C632.1,555.3,638,561.8,646,561.8z M665.2,521.8h0.9c2.6,0.3,4.5,2.6,4.3,5.1v39.7c-0.2,2.5-2.4,4.5-4.9,4.3c0,0-0.1,0-0.1,0h-0.9
	c-2.6-0.2-4.5-2.5-4.3-5.2c0,0,0-0.1,0-0.1V564c-4,4.5-9.9,7.1-15.9,6.9c-13,0-22.9-10.5-22.9-24.4c0-14.2,9.6-24.6,22.9-24.6
	c6.1-0.1,11.9,2.4,15.9,6.9V527v-0.8C660.4,523.6,662.7,521.7,665.2,521.8L665.2,521.8z M588.8,530c-7,0-12.4,4.7-13.8,12.1h27.9
	v-0.3C602.3,534.6,596,529.3,588.8,530L588.8,530z M588.8,521.8c14.6,0,24.4,9.2,24.4,22.9c0,4.6-3.3,5.1-5.7,5.1h-32.4
	c1.4,7.8,7.2,12.3,15.9,12.3c4,0,7.9-0.9,11.3-2.8c1.3-0.8,2.8-1.3,4.3-1.3h0.8c1.9,0.2,3.2,1.9,3,3.8c0,4.1-8.6,9-19.6,9
	c-15.8,0-26.5-9.9-26.5-24.6c-0.5-13,9.6-23.9,22.6-24.4C587.5,521.8,588.2,521.8,588.8,521.8L588.8,521.8z M529,561.7
	c8.2,0,14.2-6.6,14.2-15.5c0-9.2-5.9-15.7-14.2-15.7c-8,0-14,6.6-14,15.7C515,555.2,520.9,561.7,529,561.7z M548.2,500.1
	c2.7-0.2,4.9,1.9,5.1,4.5c0,0.3,0,0.5,0,0.8v60.5c0,2.8-2.3,5-5.1,5c0,0,0,0,0,0c-2.8-0.1-5-2.4-4.9-5.2c0,0,0,0,0-0.1v-1.6
	c-4,4.5-9.9,7-15.9,6.9c-13.2,0-22.9-10.3-22.9-24.6c0-14.4,9.7-24.8,22.9-24.8c6.1-0.1,11.9,2.4,15.9,7v-23.1v-0.9
	C543.4,501.8,545.6,499.8,548.2,500.1z M472.6,561.7h0.7c2.3,0.2,4,2.1,3.8,4.3c0,3.1-2.2,4.8-5.9,4.8c-10.2,0-15.8-5.7-15.8-16.2
	v-49.3v-0.8c0.3-2.8,2.8-4.7,5.5-4.5h1c2.7,0.3,4.7,2.6,4.4,5.3v49.2C466.3,559.2,468.5,561.7,472.6,561.7z M445.4,561.7h0.7
	c2.3,0.2,4,2.1,3.8,4.3c0,3.1-2.2,4.8-5.9,4.8c-10.2,0-15.8-5.7-15.8-16.2v-50.1c0.3-2.8,2.8-4.7,5.5-4.5h0.9
	c2.8,0.3,4.7,2.6,4.4,5.3v49.2C439,559.2,441.3,561.7,445.4,561.7z M390.1,561.8c8.2,0,14.2-6.5,14.2-15.4c0-9-5.9-15.5-14.2-15.5
	c-8.2,0-13.9,6.4-13.9,15.5C376.2,555.3,382.1,561.8,390.1,561.8z M409.3,521.8h0.9c2.6,0.3,4.5,2.6,4.3,5.1v39.7
	c-0.2,2.5-2.4,4.5-4.9,4.3c0,0-0.1,0-0.1,0h-0.9c-2.6-0.2-4.5-2.5-4.3-5.2c0,0,0-0.1,0-0.1V564c-4,4.5-9.9,7.1-15.9,6.9
	c-13,0-22.8-10.5-22.8-24.4c0-14.2,9.6-24.6,22.8-24.6c6.1-0.1,11.9,2.4,15.9,6.9V527v-0.8C404.5,523.6,406.8,521.7,409.3,521.8
	L409.3,521.8z M337.4,521.4c12.3,0,20,7.7,20,20.2v24c0.2,2.7-1.8,5-4.4,5.3c-0.3,0-0.6,0-0.8,0h-1c-2.7-0.2-4.7-2.6-4.5-5.2
	c0,0,0,0,0,0v-22.4c0-7.5-4.4-12.1-11.9-12.1h-0.1c-6.8-0.3-12.5,5-12.8,11.8c0,0,0,0,0,0v23.7c-0.3,2.6-2.6,4.4-5.1,4.2h-0.9
	c-2.7-0.2-4.8-2.5-4.6-5.2c0,0,0,0,0,0v-60.2c-0.2-2.8,2-5.1,4.7-5.3c0.3,0,0.5,0,0.8,0h0.9c2.6,0.3,4.6,2.6,4.3,5.3v22.4
	C325.9,523.6,331.5,521.3,337.4,521.4z M289.2,542.8c5.9,1.2,13.6,3.8,13.6,13.2c0,9-7.6,14.9-19.4,14.9c-10.5,0-18.8-3.6-18.8-8.3
	c0-1.1,0.4-2.2,1.2-3c0.8-0.7,1.7-1,2.7-0.9c1.5,0.1,2.9,0.7,4.1,1.4c3,1.7,6.3,2.6,9.7,2.6c4.5,0,9.2-1.6,9.2-6.2
	c0-3-2.2-4.5-8.2-5.7l-4.1-0.8c-9-1.7-13.5-6.3-13.5-13.5c0-8.9,7.3-14.6,18.7-14.6c9.7,0,16.9,3.1,16.9,7.3c0.1,2-1.4,3.8-3.5,3.9
	c-0.1,0-0.3,0-0.4,0c-1.2-0.1-2.4-0.5-3.5-1.1c-2.6-1.3-5.6-2-8.6-2c-5.7,0-8.5,2-8.5,5.9c0,3.2,2.2,4.8,8.2,6L289.2,542.8
	L289.2,542.8z M254.8,521.8h0.3c2.6,0.3,4.4,2.4,4.1,4.9v1c-0.3,2.6-2.6,4.5-5.3,4.2c-8.8,0-14.2,5.4-14.2,14v20.5
	c-0.2,2.6-2.6,4.5-5.2,4.3c0,0,0,0,0,0h-0.2c-2.6,0.2-4.9-1.8-5.1-4.4c0-0.3,0-0.6,0-0.9v-38.6v-0.9c0.2-2.6,2.5-4.5,5-4.3
	c0,0,0,0,0,0h1.1c2.6,0.3,4.5,2.6,4.3,5.1v1.5C243.6,524.1,249,521.7,254.8,521.8L254.8,521.8z M196.8,530c-7,0-12.4,4.7-13.8,12.1
	h27.9v-0.3C210.3,534.6,204,529.3,196.8,530L196.8,530z M196.8,521.8c14.6,0,24.4,9.2,24.4,22.9c0,4.6-3.3,5.1-5.7,5.1H183
	c1.4,7.8,7.2,12.3,15.8,12.3c4,0,7.9-0.9,11.4-2.8c1.3-0.8,2.8-1.3,4.3-1.3h0.8c1.9,0.2,3.2,1.9,2.9,3.8c0,4.1-8.6,9-19.6,9
	c-15.8,0-26.3-9.9-26.3-24.6c-0.5-13,9.6-23.9,22.6-24.4C195.5,521.8,196.1,521.8,196.8,521.8L196.8,521.8z M162.3,560.3h0.3
	c2.4,0.1,4.1,2,4.1,4.2c0,4.2-4,6.3-11.7,6.3c-11.2,0-17.8-6.8-17.8-18.2V531h-4.7c-2.3-0.1-4.1-2.1-4-4.4v-0.9
	c0.3-2.4,2.4-4.1,4.8-3.8h3.8v-11.2c0.1-2.9,2.5-5.3,5.5-5.3c3.1,0,5.6,2.3,5.7,5.3v11.2h13.4c2.6,0.1,4.7,2.2,4.7,4.6
	c0,2.6-2.2,4.5-4.9,4.5h-13.2v20.4c0,6.3,3,9.9,8.3,9.9c1.2,0,2.4-0.2,3.6-0.7C161,560.4,161.6,560.3,162.3,560.3L162.3,560.3z
	 M103,521.8c12.6,0,20.2,7.7,20.2,20.5v23.2c0,0.3,0,0.6,0,0.9c-0.2,2.6-2.6,4.5-5.3,4.3h-1c-2.7-0.2-4.7-2.5-4.5-5.1
	c0-0.1,0-0.1,0-0.2v-21.6c0-8-4.2-12.5-12-12.5c-7.9,0-12.8,5.1-12.8,13.5v21.6c-0.3,2.6-2.6,4.5-5.3,4.3h-0.8
	c-2.7-0.2-4.7-2.5-4.5-5.1c0-0.1,0-0.1,0-0.2v-38.6v-0.9c0.3-2.6,2.6-4.5,5.3-4.3h1.2c2.6,0.3,4.5,2.6,4.2,5.1v1.1
	c4-4.1,9.6-6.3,15.4-6.2H103z M60.5,521.8h1c2.7,0.3,4.7,2.6,4.5,5.1v39.7c-0.3,2.6-2.6,4.5-5.3,4.3h-1c-2.7-0.2-4.7-2.6-4.5-5.2
	c0,0,0,0,0,0V527v-0.9c0.2-2.6,2.6-4.5,5.3-4.2V521.8z M60.5,503.4h0.7c3.2,0,5.6,2.8,5.5,6.1v0.7c-0.3,3.3-3,5.7-6,5.4H60
	c-3.1,0-5.6-2.7-5.6-6.1V509C54.7,505.7,57.4,503,60.5,503.4L60.5,503.4z M39.2,521.8H40c2.4,0.1,4.3,2.2,4.2,4.6
	c0,1-0.2,1.8-0.5,2.6l-13.6,36.9c-1.2,3.4-2.9,4.9-5.7,4.9h-0.5c-3.1,0.2-5.7-2.1-6-5.2l-9.3-26.1L-1,565.7c-1,3.6-2.8,5.1-5.9,5.1
	h-0.3c-2.8,0-4.6-1.5-5.8-4.8l-13-36.9c-0.3-1.1-0.4-2.2-0.4-3.3c0.3-2.4,2.4-4.1,4.8-4h0.3c2.6-0.1,4.8,1.8,5,4.3l10.1,29.6
	l10.1-28.7c0.7-3,2.4-4.4,5-4.4h0.4c2.6-0.1,4.8,1.9,5,4.5l9.7,28.7l9.9-29.8C34.2,523.5,36.5,521.6,39.2,521.8L39.2,521.8z"/>
</svg>
